G04 #@! TF.GenerationSoftware,KiCad,Pcbnew,(6.0.1)*
G04 #@! TF.CreationDate,2022-02-24T15:47:44-08:00*
G04 #@! TF.ProjectId,MegaBlaster2,4d656761-426c-4617-9374-6572322e6b69,rev?*
G04 #@! TF.SameCoordinates,Original*
G04 #@! TF.FileFunction,Soldermask,Bot*
G04 #@! TF.FilePolarity,Negative*
%FSLAX46Y46*%
G04 Gerber Fmt 4.6, Leading zero omitted, Abs format (unit mm)*
G04 Created by KiCad (PCBNEW (6.0.1)) date 2022-02-24 15:47:44*
%MOMM*%
%LPD*%
G01*
G04 APERTURE LIST*
%ADD10C,3.000000*%
%ADD11C,1.600000*%
%ADD12C,4.000000*%
%ADD13R,1.600000X1.600000*%
%ADD14R,1.000000X1.000000*%
%ADD15O,1.000000X1.000000*%
%ADD16C,1.100000*%
%ADD17C,1.200000*%
%ADD18O,1.300000X2.600000*%
%ADD19O,2.600000X1.300000*%
%ADD20C,1.700000*%
%ADD21C,3.200000*%
%ADD22C,1.800000*%
%ADD23R,1.700000X1.700000*%
%ADD24O,1.700000X1.700000*%
%ADD25O,1.600000X1.600000*%
G04 APERTURE END LIST*
D10*
X148570000Y-45045000D03*
X148470000Y-74045000D03*
X118070000Y-74045000D03*
X118070000Y-45045000D03*
D11*
X129460000Y-43845000D03*
X132050000Y-43845000D03*
X134590000Y-43845000D03*
X137130000Y-43845000D03*
D12*
X108850000Y-52290000D03*
X96850000Y-52290000D03*
D13*
X101600000Y-57150000D03*
D11*
X104100000Y-57150000D03*
X104100000Y-55150000D03*
X101600000Y-55150000D03*
D14*
X131200000Y-81550000D03*
D15*
X132470000Y-81550000D03*
X131200000Y-82820000D03*
X132470000Y-82820000D03*
X131200000Y-84090000D03*
X132470000Y-84090000D03*
X131200000Y-85360000D03*
X132470000Y-85360000D03*
X131200000Y-86630000D03*
X132470000Y-86630000D03*
D16*
X88370000Y-93510000D03*
X88370000Y-85510000D03*
D17*
X158110000Y-50330000D03*
X153110000Y-42830000D03*
X163110000Y-42830000D03*
X153110000Y-45330000D03*
X163110000Y-45330000D03*
D18*
X155610000Y-50330000D03*
X160610000Y-50330000D03*
X163110000Y-50330000D03*
D19*
X158110000Y-45330000D03*
D18*
X153110000Y-50330000D03*
D20*
X125410000Y-112280000D03*
X131910000Y-112280000D03*
X125410000Y-116780000D03*
X131910000Y-116780000D03*
X89555000Y-124095000D03*
X96055000Y-124095000D03*
X89555000Y-128595000D03*
X96055000Y-128595000D03*
X98445000Y-131080000D03*
X104945000Y-131080000D03*
X98445000Y-135580000D03*
X104945000Y-135580000D03*
X107335000Y-124095000D03*
X113835000Y-124095000D03*
X107335000Y-128595000D03*
X113835000Y-128595000D03*
X98445000Y-117110000D03*
X104945000Y-117110000D03*
X98445000Y-121610000D03*
X104945000Y-121610000D03*
X98450000Y-124090000D03*
X104950000Y-124090000D03*
X98450000Y-128590000D03*
X104950000Y-128590000D03*
D21*
X87630000Y-45720000D03*
X179070000Y-45720000D03*
X87630000Y-137160000D03*
X179070000Y-137160000D03*
D22*
X177593000Y-67778000D03*
X177593000Y-65278000D03*
X177593000Y-62778000D03*
X175093000Y-67778000D03*
X175093000Y-65278000D03*
X175093000Y-62778000D03*
X177595001Y-129500000D03*
X177595001Y-127000000D03*
X177595001Y-124500000D03*
X175095001Y-129500000D03*
X175095001Y-127000000D03*
X175095001Y-124500000D03*
X177595001Y-110450000D03*
X177595001Y-107950000D03*
X177595001Y-105450000D03*
X175095001Y-110450000D03*
X175095001Y-107950000D03*
X175095001Y-105450000D03*
D23*
X135905000Y-115575000D03*
D24*
X135905000Y-113035000D03*
X138445000Y-115575000D03*
X138445000Y-113035000D03*
X140985000Y-115575000D03*
X140985000Y-113035000D03*
D13*
X147315000Y-87625000D03*
D25*
X147315000Y-90165000D03*
X147315000Y-92705000D03*
X147315000Y-95245000D03*
X147315000Y-97785000D03*
X147315000Y-100325000D03*
X147315000Y-102865000D03*
X147315000Y-105405000D03*
X147315000Y-107945000D03*
X147315000Y-110485000D03*
X147315000Y-113025000D03*
X147315000Y-115565000D03*
X162555000Y-115565000D03*
X162555000Y-113025000D03*
X162555000Y-110485000D03*
X162555000Y-107945000D03*
X162555000Y-105405000D03*
X162555000Y-102865000D03*
X162555000Y-100325000D03*
X162555000Y-97785000D03*
X162555000Y-95245000D03*
X162555000Y-92705000D03*
X162555000Y-90165000D03*
X162555000Y-87625000D03*
D13*
X147330000Y-119370000D03*
D25*
X147330000Y-121910000D03*
X147330000Y-124450000D03*
X147330000Y-126990000D03*
X147330000Y-129530000D03*
X147330000Y-132070000D03*
X147330000Y-134610000D03*
X147330000Y-137150000D03*
X154950000Y-137150000D03*
X154950000Y-134610000D03*
X154950000Y-132070000D03*
X154950000Y-129530000D03*
X154950000Y-126990000D03*
X154950000Y-124450000D03*
X154950000Y-121910000D03*
X154950000Y-119370000D03*
M02*
