G04 #@! TF.GenerationSoftware,KiCad,Pcbnew,(6.0.1)*
G04 #@! TF.CreationDate,2022-01-31T15:49:32-08:00*
G04 #@! TF.ProjectId,MegaBlaster2,4d656761-426c-4617-9374-6572322e6b69,rev?*
G04 #@! TF.SameCoordinates,Original*
G04 #@! TF.FileFunction,Soldermask,Top*
G04 #@! TF.FilePolarity,Negative*
%FSLAX46Y46*%
G04 Gerber Fmt 4.6, Leading zero omitted, Abs format (unit mm)*
G04 Created by KiCad (PCBNEW (6.0.1)) date 2022-01-31 15:49:32*
%MOMM*%
%LPD*%
G01*
G04 APERTURE LIST*
G04 Aperture macros list*
%AMRoundRect*
0 Rectangle with rounded corners*
0 $1 Rounding radius*
0 $2 $3 $4 $5 $6 $7 $8 $9 X,Y pos of 4 corners*
0 Add a 4 corners polygon primitive as box body*
4,1,4,$2,$3,$4,$5,$6,$7,$8,$9,$2,$3,0*
0 Add four circle primitives for the rounded corners*
1,1,$1+$1,$2,$3*
1,1,$1+$1,$4,$5*
1,1,$1+$1,$6,$7*
1,1,$1+$1,$8,$9*
0 Add four rect primitives between the rounded corners*
20,1,$1+$1,$2,$3,$4,$5,0*
20,1,$1+$1,$4,$5,$6,$7,0*
20,1,$1+$1,$6,$7,$8,$9,0*
20,1,$1+$1,$8,$9,$2,$3,0*%
%AMRotRect*
0 Rectangle, with rotation*
0 The origin of the aperture is its center*
0 $1 length*
0 $2 width*
0 $3 Rotation angle, in degrees counterclockwise*
0 Add horizontal line*
21,1,$1,$2,0,0,$3*%
G04 Aperture macros list end*
%ADD10RoundRect,0.225000X0.335876X0.017678X0.017678X0.335876X-0.335876X-0.017678X-0.017678X-0.335876X0*%
%ADD11RoundRect,0.250000X0.159099X-0.512652X0.512652X-0.159099X-0.159099X0.512652X-0.512652X0.159099X0*%
%ADD12RoundRect,0.250000X-0.512652X-0.159099X-0.159099X-0.512652X0.512652X0.159099X0.159099X0.512652X0*%
%ADD13RoundRect,0.250000X0.512652X0.159099X0.159099X0.512652X-0.512652X-0.159099X-0.159099X-0.512652X0*%
%ADD14RoundRect,0.249999X-0.229810X0.689431X-0.689431X0.229810X0.229810X-0.689431X0.689431X-0.229810X0*%
%ADD15RoundRect,0.249999X-0.650001X0.325001X-0.650001X-0.325001X0.650001X-0.325001X0.650001X0.325001X0*%
%ADD16RoundRect,0.225000X0.225000X0.250000X-0.225000X0.250000X-0.225000X-0.250000X0.225000X-0.250000X0*%
%ADD17RoundRect,0.249999X0.650001X-0.325001X0.650001X0.325001X-0.650001X0.325001X-0.650001X-0.325001X0*%
%ADD18RoundRect,0.250000X0.250000X0.475000X-0.250000X0.475000X-0.250000X-0.475000X0.250000X-0.475000X0*%
%ADD19RoundRect,0.250000X-0.250000X-0.475000X0.250000X-0.475000X0.250000X0.475000X-0.250000X0.475000X0*%
%ADD20RoundRect,0.249999X0.325001X0.650001X-0.325001X0.650001X-0.325001X-0.650001X0.325001X-0.650001X0*%
%ADD21RoundRect,0.250000X1.000000X-1.500000X1.000000X1.500000X-1.000000X1.500000X-1.000000X-1.500000X0*%
%ADD22RoundRect,0.250000X-0.475000X0.250000X-0.475000X-0.250000X0.475000X-0.250000X0.475000X0.250000X0*%
%ADD23RoundRect,0.250000X0.550000X-1.500000X0.550000X1.500000X-0.550000X1.500000X-0.550000X-1.500000X0*%
%ADD24R,1.800000X2.500000*%
%ADD25C,3.000000*%
%ADD26C,1.600000*%
%ADD27C,4.000000*%
%ADD28R,1.600000X1.600000*%
%ADD29R,1.000000X1.000000*%
%ADD30O,1.000000X1.000000*%
%ADD31R,1.400000X1.800000*%
%ADD32C,1.100000*%
%ADD33R,1.400000X1.600000*%
%ADD34R,2.200000X1.400000*%
%ADD35R,1.400000X0.700000*%
%ADD36C,1.200000*%
%ADD37O,1.300000X2.600000*%
%ADD38O,2.600000X1.300000*%
%ADD39R,3.300000X0.950000*%
%ADD40R,0.950000X3.300000*%
%ADD41R,2.000000X5.800000*%
%ADD42RoundRect,0.249998X0.450002X-0.262502X0.450002X0.262502X-0.450002X0.262502X-0.450002X-0.262502X0*%
%ADD43RoundRect,0.249998X-0.262502X-0.450002X0.262502X-0.450002X0.262502X0.450002X-0.262502X0.450002X0*%
%ADD44RoundRect,0.249998X0.262502X0.450002X-0.262502X0.450002X-0.262502X-0.450002X0.262502X-0.450002X0*%
%ADD45RoundRect,0.249998X-0.450002X0.262502X-0.450002X-0.262502X0.450002X-0.262502X0.450002X0.262502X0*%
%ADD46RoundRect,0.249998X0.132583X-0.503816X0.503816X-0.132583X-0.132583X0.503816X-0.503816X0.132583X0*%
%ADD47C,1.700000*%
%ADD48C,2.000000*%
%ADD49RoundRect,0.075000X-0.521491X0.415425X0.415425X-0.521491X0.521491X-0.415425X-0.415425X0.521491X0*%
%ADD50RoundRect,0.075000X-0.521491X-0.415425X-0.415425X-0.521491X0.521491X0.415425X0.415425X0.521491X0*%
%ADD51R,0.650000X1.060000*%
%ADD52R,1.500000X2.000000*%
%ADD53R,3.800000X2.000000*%
%ADD54R,2.000000X1.500000*%
%ADD55R,2.000000X3.800000*%
%ADD56RoundRect,0.150000X0.353553X0.565685X-0.565685X-0.353553X-0.353553X-0.565685X0.565685X0.353553X0*%
%ADD57R,1.400000X0.300000*%
%ADD58RoundRect,0.150000X-0.825000X-0.150000X0.825000X-0.150000X0.825000X0.150000X-0.825000X0.150000X0*%
%ADD59RotRect,1.300000X1.900000X135.000000*%
%ADD60R,1.200000X1.400000*%
%ADD61C,3.200000*%
%ADD62R,2.000000X2.000000*%
%ADD63RoundRect,0.249998X-0.503816X-0.132583X-0.132583X-0.503816X0.503816X0.132583X0.132583X0.503816X0*%
%ADD64RoundRect,0.250000X0.450000X-0.262500X0.450000X0.262500X-0.450000X0.262500X-0.450000X-0.262500X0*%
%ADD65RoundRect,0.250000X-0.450000X0.262500X-0.450000X-0.262500X0.450000X-0.262500X0.450000X0.262500X0*%
%ADD66C,1.800000*%
%ADD67R,1.700000X1.700000*%
%ADD68O,1.700000X1.700000*%
%ADD69O,1.600000X1.600000*%
%ADD70RoundRect,0.250000X0.475000X-0.250000X0.475000X0.250000X-0.475000X0.250000X-0.475000X-0.250000X0*%
G04 APERTURE END LIST*
D10*
X124200000Y-81900000D03*
X123103984Y-80803984D03*
D11*
X134028249Y-91121751D03*
X135371751Y-89778249D03*
D10*
X119098008Y-86998008D03*
X118001992Y-85901992D03*
D12*
X135228249Y-100528249D03*
X136571751Y-101871751D03*
D13*
X122090000Y-91270000D03*
X120746498Y-89926498D03*
X120650000Y-92710000D03*
X119306498Y-91366498D03*
D12*
X129528249Y-106328249D03*
X130871751Y-107671751D03*
D14*
X120092983Y-102107017D03*
X118007017Y-104192983D03*
D15*
X99060000Y-61875000D03*
X99060000Y-64825000D03*
D11*
X135472249Y-92492751D03*
X136815751Y-91149249D03*
X136869249Y-93889751D03*
X138212751Y-92546249D03*
D16*
X108225000Y-63750000D03*
X106675000Y-63750000D03*
D17*
X102750000Y-71025000D03*
X102750000Y-68075000D03*
X124650000Y-52475000D03*
X124650000Y-49525000D03*
D18*
X103100000Y-78300000D03*
X101200000Y-78300000D03*
X145222000Y-80772000D03*
X143322000Y-80772000D03*
D19*
X139766000Y-80772000D03*
X141666000Y-80772000D03*
D12*
X107278249Y-111342249D03*
X108621751Y-112685751D03*
D20*
X103425000Y-84600000D03*
X100475000Y-84600000D03*
X145745000Y-78570000D03*
X142795000Y-78570000D03*
D19*
X142560000Y-86868000D03*
X144460000Y-86868000D03*
D21*
X157480000Y-73608000D03*
X157480000Y-67108000D03*
D18*
X103058000Y-89408000D03*
X101158000Y-89408000D03*
D22*
X153924000Y-60772000D03*
X153924000Y-62672000D03*
D19*
X161356000Y-56388000D03*
X163256000Y-56388000D03*
D23*
X169672000Y-49436000D03*
X169672000Y-44036000D03*
X169672000Y-59088000D03*
X169672000Y-53688000D03*
D24*
X99200000Y-71500000D03*
X99200000Y-67500000D03*
D25*
X148570000Y-45045000D03*
X148470000Y-74045000D03*
X118070000Y-74045000D03*
X118070000Y-45045000D03*
D26*
X129460000Y-43845000D03*
X132050000Y-43845000D03*
X134590000Y-43845000D03*
X137130000Y-43845000D03*
D27*
X108850000Y-52290000D03*
X96850000Y-52290000D03*
D28*
X101600000Y-57150000D03*
D26*
X104100000Y-57150000D03*
X104100000Y-55150000D03*
X101600000Y-55150000D03*
D29*
X131200000Y-81550000D03*
D30*
X132470000Y-81550000D03*
X131200000Y-82820000D03*
X132470000Y-82820000D03*
X131200000Y-84090000D03*
X132470000Y-84090000D03*
X131200000Y-85360000D03*
X132470000Y-85360000D03*
X131200000Y-86630000D03*
X132470000Y-86630000D03*
D31*
X97925000Y-97208000D03*
D32*
X88370000Y-93510000D03*
D33*
X97925000Y-82660000D03*
D34*
X88626000Y-82459000D03*
X88824000Y-98209000D03*
D32*
X88370000Y-85510000D03*
D35*
X98485000Y-92710000D03*
X98485000Y-91610000D03*
X98485000Y-90510000D03*
X98485000Y-89410000D03*
X98485000Y-88310000D03*
X98485000Y-87210000D03*
X98485000Y-86110000D03*
X98485000Y-85010000D03*
X98485000Y-83910000D03*
D36*
X158110000Y-50330000D03*
X153110000Y-42830000D03*
X163110000Y-42830000D03*
X153110000Y-45330000D03*
X163110000Y-45330000D03*
D37*
X155610000Y-50330000D03*
X160610000Y-50330000D03*
X163110000Y-50330000D03*
D38*
X158110000Y-45330000D03*
D37*
X153110000Y-50330000D03*
D39*
X95900000Y-66150000D03*
X95900000Y-63100000D03*
D40*
X124650000Y-46550000D03*
X121600000Y-46550000D03*
D41*
X161798000Y-80264000D03*
X157198000Y-80264000D03*
D42*
X122580000Y-115482500D03*
X122580000Y-113657500D03*
D43*
X134215500Y-79390000D03*
X136040500Y-79390000D03*
X101387500Y-61650000D03*
X103212500Y-61650000D03*
X105287500Y-61650000D03*
X107112500Y-61650000D03*
D44*
X108262500Y-65900000D03*
X106437500Y-65900000D03*
D43*
X132787500Y-49800000D03*
X134612500Y-49800000D03*
D44*
X138962500Y-49800000D03*
X137137500Y-49800000D03*
D45*
X121600000Y-49637500D03*
X121600000Y-51462500D03*
D46*
X111324765Y-109995235D03*
X112615235Y-108704765D03*
D44*
X167800501Y-64950000D03*
X165975501Y-64950000D03*
D45*
X153924000Y-57253500D03*
X153924000Y-59078500D03*
X163576000Y-59539500D03*
X163576000Y-61364500D03*
D43*
X165965500Y-62992000D03*
X167790500Y-62992000D03*
D42*
X174244000Y-45870500D03*
X174244000Y-44045500D03*
X174244000Y-55419000D03*
X174244000Y-53594000D03*
D47*
X125410000Y-112280000D03*
X131910000Y-112280000D03*
X125410000Y-116780000D03*
X131910000Y-116780000D03*
X89555000Y-124095000D03*
X96055000Y-124095000D03*
X89555000Y-128595000D03*
X96055000Y-128595000D03*
X98445000Y-131080000D03*
X104945000Y-131080000D03*
X98445000Y-135580000D03*
X104945000Y-135580000D03*
X107335000Y-124095000D03*
X113835000Y-124095000D03*
X107335000Y-128595000D03*
X113835000Y-128595000D03*
X98445000Y-117110000D03*
X104945000Y-117110000D03*
X98445000Y-121610000D03*
X104945000Y-121610000D03*
X98450000Y-124090000D03*
X104950000Y-124090000D03*
X98450000Y-128590000D03*
X104950000Y-128590000D03*
D48*
X115824000Y-90932000D03*
X107886500Y-68643500D03*
X95123000Y-60833000D03*
D49*
X125647658Y-91134357D03*
X125294105Y-91487911D03*
X124940551Y-91841464D03*
X124586998Y-92195018D03*
X124233445Y-92548571D03*
X123879891Y-92902124D03*
X123526338Y-93255678D03*
X123172785Y-93609231D03*
X122819231Y-93962785D03*
X122465678Y-94316338D03*
X122112124Y-94669891D03*
X121758571Y-95023445D03*
X121405018Y-95376998D03*
X121051464Y-95730551D03*
X120697911Y-96084105D03*
X120344357Y-96437658D03*
D50*
X120344357Y-99142342D03*
X120697911Y-99495895D03*
X121051464Y-99849449D03*
X121405018Y-100203002D03*
X121758571Y-100556555D03*
X122112124Y-100910109D03*
X122465678Y-101263662D03*
X122819231Y-101617215D03*
X123172785Y-101970769D03*
X123526338Y-102324322D03*
X123879891Y-102677876D03*
X124233445Y-103031429D03*
X124586998Y-103384982D03*
X124940551Y-103738536D03*
X125294105Y-104092089D03*
X125647658Y-104445643D03*
D49*
X128352342Y-104445643D03*
X128705895Y-104092089D03*
X129059449Y-103738536D03*
X129413002Y-103384982D03*
X129766555Y-103031429D03*
X130120109Y-102677876D03*
X130473662Y-102324322D03*
X130827215Y-101970769D03*
X131180769Y-101617215D03*
X131534322Y-101263662D03*
X131887876Y-100910109D03*
X132241429Y-100556555D03*
X132594982Y-100203002D03*
X132948536Y-99849449D03*
X133302089Y-99495895D03*
X133655643Y-99142342D03*
D50*
X133655643Y-96437658D03*
X133302089Y-96084105D03*
X132948536Y-95730551D03*
X132594982Y-95376998D03*
X132241429Y-95023445D03*
X131887876Y-94669891D03*
X131534322Y-94316338D03*
X131180769Y-93962785D03*
X130827215Y-93609231D03*
X130473662Y-93255678D03*
X130120109Y-92902124D03*
X129766555Y-92548571D03*
X129413002Y-92195018D03*
X129059449Y-91841464D03*
X128705895Y-91487911D03*
X128352342Y-91134357D03*
D51*
X101285000Y-65870000D03*
X102235000Y-65870000D03*
X103185000Y-65870000D03*
X103185000Y-63670000D03*
X101285000Y-63670000D03*
D52*
X110150000Y-78300000D03*
X107850000Y-78300000D03*
D53*
X107850000Y-84600000D03*
D52*
X105550000Y-78300000D03*
D54*
X147980000Y-77964000D03*
D55*
X154280000Y-80264000D03*
D54*
X147980000Y-80264000D03*
X147980000Y-82564000D03*
D56*
X113874623Y-104465454D03*
X112976597Y-103567428D03*
X112078572Y-102669403D03*
X111180546Y-101771377D03*
X106089377Y-106862546D03*
X106987403Y-107760572D03*
X107885428Y-108658597D03*
X108783454Y-109556623D03*
D57*
X139786000Y-82850000D03*
X139786000Y-83350000D03*
X139786000Y-83850000D03*
X139786000Y-84350000D03*
X139786000Y-84850000D03*
X144186000Y-84850000D03*
X144186000Y-84350000D03*
X144186000Y-83850000D03*
X144186000Y-83350000D03*
X144186000Y-82850000D03*
D58*
X156275000Y-58293000D03*
X156275000Y-59563000D03*
X156275000Y-60833000D03*
X156275000Y-62103000D03*
X161225000Y-62103000D03*
X161225000Y-60833000D03*
X161225000Y-59563000D03*
X161225000Y-58293000D03*
D59*
X122775914Y-83313173D03*
X118886827Y-79424086D03*
X116624086Y-81686827D03*
X120513173Y-85575914D03*
D60*
X135548000Y-82720000D03*
X135548000Y-84920000D03*
X137248000Y-84920000D03*
X137248000Y-82720000D03*
D61*
X87630000Y-45720000D03*
X179070000Y-45720000D03*
X87630000Y-137160000D03*
X179070000Y-137160000D03*
D62*
X181102000Y-57658000D03*
D63*
X137530765Y-98478265D03*
X138821235Y-99768735D03*
D22*
X172466000Y-94046000D03*
X172466000Y-95946000D03*
D58*
X160974000Y-127000000D03*
X160974000Y-128270000D03*
X160974000Y-129540000D03*
X160974000Y-130810000D03*
X160974000Y-132080000D03*
X160974000Y-133350000D03*
X160974000Y-134620000D03*
X165924000Y-134620000D03*
X165924000Y-133350000D03*
X165924000Y-132080000D03*
X165924000Y-130810000D03*
X165924000Y-129540000D03*
X165924000Y-128270000D03*
X165924000Y-127000000D03*
D22*
X173736000Y-118303000D03*
X173736000Y-120203000D03*
D64*
X174498000Y-89685500D03*
X174498000Y-87860500D03*
D65*
X176530000Y-94083500D03*
X176530000Y-95908500D03*
D64*
X176403000Y-83335500D03*
X176403000Y-81510500D03*
D65*
X176403000Y-74652500D03*
X176403000Y-76477500D03*
D64*
X176403000Y-79906500D03*
X176403000Y-78081500D03*
D22*
X174371000Y-71186000D03*
X174371000Y-73086000D03*
X164338000Y-75758000D03*
X164338000Y-77658000D03*
D66*
X177593000Y-67778000D03*
X177593000Y-65278000D03*
X177593000Y-62778000D03*
X175093000Y-67778000D03*
X175093000Y-65278000D03*
X175093000Y-62778000D03*
X177595001Y-129500000D03*
X177595001Y-127000000D03*
X177595001Y-124500000D03*
X175095001Y-129500000D03*
X175095001Y-127000000D03*
X175095001Y-124500000D03*
D18*
X171765000Y-135763000D03*
X169865000Y-135763000D03*
D66*
X177595001Y-110450000D03*
X177595001Y-107950000D03*
X177595001Y-105450000D03*
X175095001Y-110450000D03*
X175095001Y-107950000D03*
X175095001Y-105450000D03*
D22*
X176530000Y-97602000D03*
X176530000Y-99502000D03*
D67*
X135905000Y-115575000D03*
D68*
X135905000Y-113035000D03*
X138445000Y-115575000D03*
X138445000Y-113035000D03*
X140985000Y-115575000D03*
X140985000Y-113035000D03*
D22*
X174498000Y-97602000D03*
X174498000Y-99502000D03*
D65*
X180594000Y-94083500D03*
X180594000Y-95908500D03*
X178562000Y-94083500D03*
X178562000Y-95908500D03*
D64*
X174371000Y-79906500D03*
X174371000Y-78081500D03*
X174371000Y-83335500D03*
X174371000Y-81510500D03*
D65*
X158115000Y-133453500D03*
X158115000Y-135278500D03*
D58*
X166689000Y-75438000D03*
X166689000Y-76708000D03*
X166689000Y-77978000D03*
X166689000Y-79248000D03*
X166689000Y-80518000D03*
X166689000Y-81788000D03*
X166689000Y-83058000D03*
X171639000Y-83058000D03*
X171639000Y-81788000D03*
X171639000Y-80518000D03*
X171639000Y-79248000D03*
X171639000Y-77978000D03*
X171639000Y-76708000D03*
X171639000Y-75438000D03*
D22*
X176403000Y-71186000D03*
X176403000Y-73086000D03*
X171704000Y-118303000D03*
X171704000Y-120203000D03*
D19*
X168275000Y-132334000D03*
X170175000Y-132334000D03*
X158181000Y-119888000D03*
X160081000Y-119888000D03*
D65*
X142621000Y-119737500D03*
X142621000Y-121562500D03*
D19*
X168275000Y-129286000D03*
X170175000Y-129286000D03*
D18*
X156652000Y-84963000D03*
X154752000Y-84963000D03*
D48*
X181102000Y-51610000D03*
D64*
X176530000Y-89685500D03*
X176530000Y-87860500D03*
D19*
X169611000Y-65024000D03*
X171511000Y-65024000D03*
D28*
X147315000Y-87625000D03*
D69*
X147315000Y-90165000D03*
X147315000Y-92705000D03*
X147315000Y-95245000D03*
X147315000Y-97785000D03*
X147315000Y-100325000D03*
X147315000Y-102865000D03*
X147315000Y-105405000D03*
X147315000Y-107945000D03*
X147315000Y-110485000D03*
X147315000Y-113025000D03*
X147315000Y-115565000D03*
X162555000Y-115565000D03*
X162555000Y-113025000D03*
X162555000Y-110485000D03*
X162555000Y-107945000D03*
X162555000Y-105405000D03*
X162555000Y-102865000D03*
X162555000Y-100325000D03*
X162555000Y-97785000D03*
X162555000Y-95245000D03*
X162555000Y-92705000D03*
X162555000Y-90165000D03*
X162555000Y-87625000D03*
D22*
X180340000Y-118303000D03*
X180340000Y-120203000D03*
D65*
X144526000Y-119737500D03*
X144526000Y-121562500D03*
X174498000Y-94083500D03*
X174498000Y-95908500D03*
D22*
X178308000Y-118303000D03*
X178308000Y-120203000D03*
D65*
X174371000Y-74652500D03*
X174371000Y-76477500D03*
D70*
X158369000Y-130744000D03*
X158369000Y-128844000D03*
D19*
X169611000Y-62992000D03*
X171511000Y-62992000D03*
D18*
X171765000Y-137795000D03*
X169865000Y-137795000D03*
D48*
X181102000Y-54658000D03*
D28*
X147330000Y-119370000D03*
D69*
X147330000Y-121910000D03*
X147330000Y-124450000D03*
X147330000Y-126990000D03*
X147330000Y-129530000D03*
X147330000Y-132070000D03*
X147330000Y-134610000D03*
X147330000Y-137150000D03*
X154950000Y-137150000D03*
X154950000Y-134610000D03*
X154950000Y-132070000D03*
X154950000Y-129530000D03*
X154950000Y-126990000D03*
X154950000Y-124450000D03*
X154950000Y-121910000D03*
X154950000Y-119370000D03*
M02*
