M48
; DRILL file {KiCad (6.0.1)} date Mon Jan 31 15:50:04 2022
; FORMAT={-:-/ absolute / metric / decimal}
; #@! TF.CreationDate,2022-01-31T15:50:04-08:00
; #@! TF.GenerationSoftware,Kicad,Pcbnew,(6.0.1)
; #@! TF.FileFunction,Plated,1,4,PTH
FMAT,2
METRIC
; #@! TA.AperFunction,Plated,PTH,ViaDrill
T1C0.400
; #@! TA.AperFunction,Plated,PTH,ComponentDrill
T2C0.650
; #@! TA.AperFunction,Plated,PTH,ComponentDrill
T3C0.800
; #@! TA.AperFunction,Plated,PTH,ComponentDrill
T4C0.950
; #@! TA.AperFunction,Plated,PTH,ComponentDrill
T5C1.000
; #@! TA.AperFunction,Plated,PTH,ComponentDrill
T6C2.300
%
G90
G05
T1
X85.598Y-52.959
X85.852Y-80.264
X85.852Y-133.604
X86.487Y-74.676
X86.868Y-48.768
X87.884Y-105.41
X90.17Y-46.99
X90.17Y-134.874
X90.424Y-53.34
X90.424Y-75.946
X90.424Y-76.708
X90.932Y-44.196
X90.932Y-118.11
X91.186Y-75.946
X91.186Y-76.708
X91.694Y-139.192
X91.948Y-75.946
X91.948Y-76.708
X92.139Y-109.83
X92.71Y-75.946
X92.71Y-76.708
X92.965Y-110.41
X93.81Y-110.977
X93.98Y-102.362
X94.234Y-73.025
X94.615Y-70.612
X94.64Y-111.53
X95.25Y-126.238
X95.49Y-112.09
X95.758Y-77.216
X96.774Y-55.626
X97.028Y-44.196
X97.8Y-111.28
X98.65Y-64.85
X99.5Y-64.85
X99.8Y-89.425
X100.0Y-86.22
X101.88Y-95.64
X102.3Y-65.95
X102.3Y-68.05
X102.616Y-111.506
X102.67Y-87.38
X102.87Y-97.79
X103.2Y-68.05
X104.14Y-125.984
X104.63Y-59.2
X104.648Y-49.276
X105.28Y-59.68
X105.41Y-91.948
X105.42Y-58.89
X105.697Y-96.272
X106.125Y-110.65
X106.236Y-56.197
X106.309Y-86.846
X106.309Y-87.608
X106.309Y-88.37
X106.309Y-89.132
X106.475Y-96.9
X107.071Y-86.846
X107.071Y-87.608
X107.071Y-88.37
X107.071Y-89.132
X107.188Y-70.612
X107.188Y-71.374
X107.188Y-72.136
X107.222Y-97.564
X107.833Y-86.846
X107.833Y-87.608
X107.833Y-88.37
X107.833Y-89.132
X107.9Y-78.3
X107.95Y-70.612
X107.95Y-71.374
X107.95Y-72.136
X108.061Y-98.109
X108.595Y-86.846
X108.595Y-87.608
X108.595Y-88.37
X108.595Y-89.132
X108.712Y-70.612
X108.712Y-71.374
X108.712Y-72.136
X108.82Y-98.76
X109.357Y-86.846
X109.357Y-87.608
X109.357Y-88.37
X109.357Y-89.132
X109.474Y-46.482
X110.24Y-111.15
X111.831Y-105.085
X112.268Y-137.668
X113.538Y-84.328
X113.538Y-126.238
X113.792Y-75.946
X113.792Y-95.377
X115.57Y-110.49
X115.57Y-113.03
X115.93Y-104.25
X116.332Y-48.768
X116.84Y-111.76
X117.602Y-56.642
X118.11Y-109.22
X118.364Y-100.33
X119.38Y-95.25
X119.38Y-109.22
X120.607Y-97.671
X120.65Y-61.214
X120.65Y-91.44
X121.158Y-76.2
X121.16Y-104.8
X121.63Y-53.12
X121.67Y-117.05
X122.265Y-99.06
X122.426Y-106.215
X122.614Y-104.329
X122.703Y-108.093
X122.81Y-110.64
X122.88Y-96.17
X123.063Y-125.476
X123.185Y-78.486
X123.19Y-90.17
X123.317Y-100.113
X123.611Y-104.753
X123.698Y-68.072
X123.844Y-98.405
X124.185Y-78.474
X124.53Y-94.32
X125.242Y-95.022
X125.31Y-97.135
X125.419Y-100.591
X125.64Y-93.358
X125.729Y-99.715
X125.73Y-101.6
X126.37Y-94.05
X127.11Y-94.9
X127.381Y-103.124
X127.779Y-105.264
X128.037Y-107.91
X128.352Y-77.134
X128.924Y-96.37
X129.032Y-50.546
X129.37Y-68.11
X129.413Y-134.112
X130.375Y-76.889
X130.778Y-98.899
X131.39Y-88.53
X131.476Y-98.202
X132.334Y-77.941
X132.847Y-103.645
X132.95Y-47.9
X133.312Y-91.837
X133.35Y-107.95
X133.495Y-89.322
X133.868Y-100.821
X134.112Y-82.804
X134.239Y-125.349
X134.3Y-94.1
X134.67Y-80.95
X134.874Y-120.142
X134.956Y-97.11
X135.128Y-98.87
X135.636Y-58.928
X137.414Y-79.502
X137.647Y-136.413
X138.43Y-87.884
X138.5Y-80.86
X138.938Y-67.31
X138.95Y-47.8
X140.97Y-91.186
X141.536Y-83.82
X141.986Y-46.228
X141.986Y-60.198
X142.113Y-129.667
X142.558Y-97.174
X142.875Y-105.41
X143.51Y-107.823
X144.272Y-53.34
X144.6Y-88.76
X148.082Y-58.166
X148.59Y-84.074
X148.59Y-85.09
X148.971Y-119.888
X149.606Y-49.022
X149.606Y-84.074
X149.606Y-85.09
X150.622Y-65.786
X150.622Y-84.074
X150.622Y-85.09
X150.749Y-92.456
X150.876Y-121.666
X151.13Y-79.121
X151.13Y-119.38
X151.257Y-124.333
X151.257Y-132.588
X151.384Y-137.414
X151.638Y-126.619
X152.4Y-113.03
X152.654Y-84.709
X153.416Y-75.565
X153.67Y-113.03
X154.051Y-64.643
X154.94Y-113.03
X155.448Y-97.79
X155.956Y-43.18
X155.956Y-53.34
X156.337Y-63.754
X156.845Y-89.281
X157.099Y-107.95
X157.353Y-114.554
X157.48Y-101.6
X157.48Y-105.537
X157.48Y-118.11
X157.607Y-60.198
X157.607Y-123.444
X157.861Y-63.754
X158.22Y-62.02
X158.436Y-58.711
X159.385Y-111.125
X159.639Y-130.81
X159.766Y-102.362
X160.02Y-42.926
X160.02Y-56.134
X161.29Y-78.232
X161.29Y-79.248
X161.29Y-80.264
X161.29Y-81.28
X161.29Y-82.296
X162.052Y-66.802
X162.306Y-78.232
X162.306Y-79.248
X162.306Y-80.264
X162.306Y-81.28
X162.306Y-82.296
X162.49Y-63.7
X162.814Y-137.414
X162.941Y-121.412
X163.18Y-62.53
X163.195Y-131.699
X163.51Y-63.3
X163.576Y-128.651
X163.83Y-64.897
X164.14Y-63.97
X164.39Y-62.98
X164.465Y-81.534
X164.592Y-69.596
X166.116Y-56.642
X166.37Y-43.942
X166.37Y-50.038
X166.55Y-60.68
X167.386Y-93.472
X167.386Y-120.777
X167.386Y-130.81
X167.64Y-52.832
X167.767Y-71.12
X168.275Y-79.375
X168.353Y-78.027
X168.402Y-76.581
X168.402Y-86.868
X168.529Y-80.645
X168.91Y-130.81
X169.926Y-106.807
X170.053Y-78.105
X170.561Y-101.092
X170.688Y-66.548
X171.577Y-133.858
X171.958Y-71.628
X172.466Y-57.15
X172.72Y-114.935
X172.974Y-64.77
X173.228Y-79.121
X174.244Y-50.292
X174.498Y-91.821
X174.498Y-95.126
X175.006Y-139.192
X175.768Y-122.174
X176.022Y-43.942
X176.276Y-114.554
X176.276Y-134.874
X176.403Y-58.674
X176.53Y-86.106
X176.53Y-91.821
X176.53Y-95.126
X176.784Y-47.498
X178.435Y-81.915
X178.562Y-74.93
X178.562Y-95.126
X178.689Y-100.33
X179.451Y-122.936
X179.705Y-115.443
X180.086Y-49.022
X180.34Y-133.096
X180.594Y-62.23
X180.594Y-88.138
X180.594Y-95.126
X180.721Y-72.009
X180.848Y-69.342
X181.229Y-127.635
X181.61Y-79.883
X181.991Y-100.711
T2
X131.2Y-81.55
X131.2Y-82.82
X131.2Y-84.09
X131.2Y-85.36
X131.2Y-86.63
X132.47Y-81.55
X132.47Y-82.82
X132.47Y-84.09
X132.47Y-85.36
X132.47Y-86.63
T3
X129.46Y-43.845
X132.05Y-43.845
X134.59Y-43.845
X137.13Y-43.845
X147.315Y-87.625
X147.315Y-90.165
X147.315Y-92.705
X147.315Y-95.245
X147.315Y-97.785
X147.315Y-100.325
X147.315Y-102.865
X147.315Y-105.405
X147.315Y-107.945
X147.315Y-110.485
X147.315Y-113.025
X147.315Y-115.565
X147.33Y-119.37
X147.33Y-121.91
X147.33Y-124.45
X147.33Y-126.99
X147.33Y-129.53
X147.33Y-132.07
X147.33Y-134.61
X147.33Y-137.15
X154.95Y-119.37
X154.95Y-121.91
X154.95Y-124.45
X154.95Y-126.99
X154.95Y-129.53
X154.95Y-132.07
X154.95Y-134.61
X154.95Y-137.15
X162.555Y-87.625
X162.555Y-90.165
X162.555Y-92.705
X162.555Y-95.245
X162.555Y-97.785
X162.555Y-100.325
X162.555Y-102.865
X162.555Y-105.405
X162.555Y-107.945
X162.555Y-110.485
X162.555Y-113.025
X162.555Y-115.565
T4
X101.6Y-55.15
X101.6Y-57.15
X104.1Y-55.15
X104.1Y-57.15
T5
X89.555Y-124.095
X89.555Y-128.595
X96.055Y-124.095
X96.055Y-128.595
X98.445Y-117.11
X98.445Y-121.61
X98.445Y-131.08
X98.445Y-135.58
X98.45Y-124.09
X98.45Y-128.59
X104.945Y-117.11
X104.945Y-121.61
X104.945Y-131.08
X104.945Y-135.58
X104.95Y-124.09
X104.95Y-128.59
X107.335Y-124.095
X107.335Y-128.595
X113.835Y-124.095
X113.835Y-128.595
X125.41Y-112.28
X125.41Y-116.78
X131.91Y-112.28
X131.91Y-116.78
X135.905Y-113.035
X135.905Y-115.575
X138.445Y-113.035
X138.445Y-115.575
X140.985Y-113.035
X140.985Y-115.575
X175.093Y-62.778
X175.093Y-65.278
X175.093Y-67.778
X175.095Y-105.45
X175.095Y-107.95
X175.095Y-110.45
X175.095Y-124.5
X175.095Y-127.0
X175.095Y-129.5
X177.593Y-62.778
X177.593Y-65.278
X177.593Y-67.778
X177.595Y-105.45
X177.595Y-107.95
X177.595Y-110.45
X177.595Y-124.5
X177.595Y-127.0
X177.595Y-129.5
T6
X96.85Y-52.29
X108.85Y-52.29
T3
X153.11Y-50.08G85X153.11Y-50.58
G05
X155.61Y-50.08G85X155.61Y-50.58
G05
X157.86Y-45.33G85X158.36Y-45.33
G05
X160.61Y-50.08G85X160.61Y-50.58
G05
X163.11Y-50.08G85X163.11Y-50.58
G05
T0
M30
